<svg xmlns="http://www.w3.org/2000/svg" xmlns:xlink="http://www.w3.org/1999/xlink" width="636.8" height="630.89" viewBox="0 0 636.8 630.89">
  <defs>
    <style>
      .cls-1 {
        isolation: isolate;
      }

      .cls-2 {
        fill: #70cce8;
      }

      .cls-3 {
        fill: #d1d3d4;
      }

      .cls-4 {
        fill: #161d21;
      }

      .cls-5 {
        fill: #fff;
      }

      .cls-6 {
        fill: #2e2e2e;
      }

      .cls-7 {
        fill: #c0bbbb;
      }

      .cls-12, .cls-8 {
        fill: #fc6443;
      }

      .cls-9 {
        fill: #00abed;
      }

      .cls-10 {
        fill: #ffd13b;
      }

      .cls-11 {
        fill-rule: evenodd;
        fill: url(#linear-gradient);
      }

      .cls-12 {
        mix-blend-mode: hard-light;
      }
    </style>
    <linearGradient id="linear-gradient" x1="519.46" y1="435.98" x2="559.77" y2="435.98" gradientUnits="userSpaceOnUse">
      <stop offset="0" stop-color="#fff"/>
      <stop offset="0.26" stop-color="#f0f2f4"/>
      <stop offset="0.57" stop-color="#e6eaed"/>
      <stop offset="0.98" stop-color="#e3e8eb"/>
    </linearGradient>
  </defs>
  <g class="cls-1">
    <g id="Layer_1" data-name="Layer 1">
      <g>
        <circle class="cls-2" cx="300.35" cy="331.01" r="201.64" transform="translate(-146.09 309.33) rotate(-45)"/>
        <g>
          <g>
            <path class="cls-2" d="M41.8,369.81A261.22,261.22,0,0,1,287.55,69.73l1.65-2c-5,.22-9.95.56-14.94,1.06A263.39,263.39,0,0,0,38.25,357c.5,5,1.15,9.93,1.91,14.84Z"/>
            <path class="cls-2" d="M505.94,169.11l1.21-1.49A266.06,266.06,0,0,0,398,86.13l-1.27,1.55a261.91,261.91,0,0,1,109.2,81.43Z"/>
            <path class="cls-2" d="M552.89,263.05c21,78.63,5.23,165.93-50.15,233.57-91.39,111.59-256.53,128-368.13,36.64a260.79,260.79,0,0,1-53.68-59.95l-1.27,1.55a263.47,263.47,0,0,0,482.8-170.07,267.45,267.45,0,0,0-8-43.61Z"/>
          </g>
          <g>
            <path class="cls-2" d="M97.74,253.69a216.33,216.33,0,0,1,23.48-45c66-96.76,197-123.25,295.17-61l1-1.43a218.54,218.54,0,0,0-297.58,61.44A220,220,0,0,0,95.71,254Z"/>
            <path class="cls-2" d="M84.33,348.14l-1.83.25a220,220,0,0,0,3.12,23.1,217,217,0,0,0,85.64,135.72l1-1.43A216.52,216.52,0,0,1,84.33,348.14Z"/>
            <path class="cls-2" d="M476.47,201.3q-4.1-5.55-8.55-10.86L466.85,192q3.91,4.69,7.53,9.58Z"/>
            <path class="cls-2" d="M514.77,288.61l-1.83.25A216.13,216.13,0,0,1,479.49,453c-55.77,81.79-158,113.35-247.61,83.56l-1.07,1.56A218.62,218.62,0,0,0,515.1,290.27Z"/>
          </g>
          <g>
            <path class="cls-2" d="M417.75,533.91c3-1.75,5.95-3.6,8.85-5.48l-1-1.45c-2.87,1.87-5.82,3.7-8.78,5.44Z"/>
            <path class="cls-2" d="M131.54,495.09l-1.24,1.21c2.43,2.46,4.94,4.9,7.46,7.24l1.18-1.27C136.43,500,133.94,497.53,131.54,495.09Z"/>
            <path class="cls-2" d="M117.73,479.78l-1.33,1.1c2.19,2.66,4.47,5.31,6.78,7.86l1.28-1.15C122.17,485,119.91,482.42,117.73,479.78Z"/>
            <path class="cls-2" d="M85.14,427.3l-1.58.71c1.42,3.16,2.93,6.32,4.48,9.4l1.54-.78C88,433.57,86.55,430.43,85.14,427.3Z"/>
            <path class="cls-2" d="M163,521.79l-1,1.41c2.81,2,5.71,3.95,8.62,5.83l.93-1.45C168.62,525.72,165.74,523.77,163,521.79Z"/>
            <path class="cls-2" d="M105.33,463.29l-1.43,1c1.95,2.85,4,5.69,6.07,8.46l1.39-1.05C109.29,468.94,107.27,466.12,105.33,463.29Z"/>
            <path class="cls-2" d="M94.43,445.75l-1.5.85c1.69,3,3.47,6,5.29,8.95l1.47-.91C97.88,451.73,96.11,448.74,94.43,445.75Z"/>
            <path class="cls-2" d="M399.38,543.68c3.12-1.49,6.24-3.06,9.29-4.68l-.81-1.53c-3,1.61-6.13,3.17-9.23,4.64Z"/>
            <path class="cls-2" d="M360,556.49l.46,1.67c3.33-.92,6.69-1.92,10-3l-.53-1.65C366.59,554.59,363.26,555.58,360,556.49Z"/>
            <path class="cls-2" d="M379.61,550.15l.6,1.62c3.24-1.2,6.5-2.49,9.67-3.83l-.67-1.6C386.06,547.67,382.83,549,379.61,550.15Z"/>
            <path class="cls-2" d="M180.31,533l-.87,1.49c3,1.74,6,3.44,9.09,5l.81-1.53C186.31,536.39,183.27,534.7,180.31,533Z"/>
            <path class="cls-2" d="M198.59,542.6l-.74,1.56c3.13,1.48,6.33,2.9,9.51,4.23l.67-1.59C204.87,545.47,201.69,544.06,198.59,542.6Z"/>
            <path class="cls-2" d="M244.12,558.56c-2.26-.55-4.53-1.11-6.77-1.71l-.45,1.67c2.56.69,5.15,1.33,7.74,1.94Z"/>
            <path class="cls-2" d="M217.65,550.58l-.6,1.62c3.25,1.19,6.56,2.33,9.86,3.38l.52-1.65C224.16,552.89,220.87,551.76,217.65,550.58Z"/>
            <path class="cls-2" d="M146.65,509.13l-1.12,1.32c2.63,2.23,5.34,4.44,8.07,6.56l1.06-1.37C152,513.54,149.26,511.35,146.65,509.13Z"/>
            <path class="cls-2" d="M99,209.24l-1.48-.91c-1.81,2.95-3.57,6-5.24,9l1.52.84C95.44,215.17,97.19,212.16,99,209.24Z"/>
            <path class="cls-2" d="M122.25,175c-2.28,2.58-4.55,5.24-6.73,7.93l1.35,1.09c2.16-2.67,4.41-5.31,6.68-7.87Z"/>
            <path class="cls-2" d="M109.15,191.09c-2.05,2.77-4.07,5.63-6,8.49l1.44,1c1.92-2.84,3.92-5.68,6-8.43Z"/>
            <path class="cls-2" d="M135.4,161.31c-2.06,2-4.1,4-6.08,6l1.25,1.21c1.74-1.8,3.54-3.58,5.35-5.33Z"/>
            <path class="cls-2" d="M226,109.17l-.53-1.65c-3,1-5.94,2-8.88,3.08l.46,1.67C220,111.18,223,110.14,226,109.17Z"/>
            <path class="cls-2" d="M339.91,561.07l.46,1.68c3.31-.62,6.66-1.3,9.95-2l-.38-1.69C346.62,559.77,343.25,560.46,339.91,561.07Z"/>
            <path class="cls-2" d="M87.43,226.53c-1.54,3.09-3,6.26-4.44,9.42l1.59.7c1.39-3.13,2.87-6.28,4.4-9.35Z"/>
            <path class="cls-2" d="M79,245.56c-1.26,3.21-2.47,6.5-3.59,9.78l1.64.56c1.11-3.26,2.31-6.52,3.56-9.71Z"/>
            <path class="cls-2" d="M64.1,306.1c-.37,3.44-.67,6.94-.89,10.4l1.73.11c.21-3.43.51-6.9.88-10.32Z"/>
            <path class="cls-2" d="M72.23,265.26c-1,3.32-1.88,6.71-2.71,10.06l1.68.42c.82-3.34,1.73-6.7,2.7-10Z"/>
            <path class="cls-2" d="M67.26,285.5c-.68,3.39-1.29,6.85-1.81,10.26l1.71.27c.52-3.4,1.13-6.83,1.8-10.2Z"/>
            <path class="cls-2" d="M530.63,367.12c.53-3.43,1-6.91,1.37-10.34l-1.72-.19c-.38,3.41-.83,6.86-1.36,10.26Z"/>
            <path class="cls-2" d="M496.56,208.2l1.48-.91c-1.82-2.93-3.73-5.87-5.68-8.72l-1.43,1C492.87,202.38,494.76,205.29,496.56,208.2Z"/>
            <path class="cls-2" d="M457.37,160.53l1.18-1.27c-2.53-2.35-5.14-4.68-7.76-6.91l-1.12,1.31C452.27,155.88,454.86,158.19,457.37,160.53Z"/>
            <path class="cls-2" d="M435.19,522.55c2.79-2,5.58-4.11,8.29-6.23L442.41,515c-2.69,2.11-5.46,4.19-8.23,6.18Z"/>
            <path class="cls-2" d="M471.83,175.23l1.28-1.16c-2.3-2.56-4.7-5.1-7.11-7.56l-1.24,1.21C467.16,170.16,469.54,172.69,471.83,175.23Z"/>
            <path class="cls-2" d="M266.76,99.87l-.24-1.71c-3.42.46-6.87,1-10.28,1.63l.31,1.7C259.93,100.88,263.36,100.33,266.76,99.87Z"/>
            <path class="cls-2" d="M235.93,106.21l.48-.14c3.32-.9,6.69-1.75,10-2.51l-.39-1.68c-3.36.76-6.75,1.61-10.1,2.53l-.48.13Z"/>
            <path class="cls-2" d="M287.32,98l-.08-1.73c-3.45.16-6.94.4-10.38.72L277,98.7C280.43,98.39,283.9,98.15,287.32,98Z"/>
            <path class="cls-2" d="M349,103.36l.38-1.69c-3.38-.76-6.82-1.45-10.22-2l-.3,1.7C342.2,101.92,345.61,102.61,349,103.36Z"/>
            <path class="cls-2" d="M328.6,99.74l.23-1.72c-3.42-.45-6.91-.84-10.37-1.14l-.15,1.73C321.74,98.9,325.2,99.29,328.6,99.74Z"/>
            <path class="cls-2" d="M308,97.94l.08-1.73c-3.46-.15-7-.22-10.41-.21v1.73C301.07,97.72,304.54,97.79,308,97.94Z"/>
            <path class="cls-2" d="M484.92,191.15l1.38-1c-2.07-2.76-4.23-5.51-6.41-8.16l-1.34,1.1C480.72,185.68,482.86,188.41,484.92,191.15Z"/>
            <path class="cls-2" d="M492.84,463.26c1.93-2.87,3.83-5.8,5.64-8.74l-1.48-.91c-1.79,2.92-3.68,5.84-5.6,8.68Z"/>
            <path class="cls-2" d="M503.73,445.53c1.67-3,3.31-6.11,4.85-9.21l-1.55-.77c-1.53,3.07-3.15,6.15-4.82,9.14Z"/>
            <path class="cls-2" d="M513,426.91c1.41-3.16,2.76-6.39,4-9.6l-1.61-.64c-1.26,3.19-2.6,6.4-4,9.53Z"/>
            <path class="cls-2" d="M451.5,509.72c2.61-2.25,5.2-4.59,7.71-7L458,501.5c-2.5,2.36-5.08,4.68-7.66,6.9Z"/>
            <path class="cls-2" d="M520.65,407.54c1.12-3.28,2.19-6.61,3.17-9.93l-1.67-.49c-1,3.29-2,6.61-3.14,9.86Z"/>
            <path class="cls-2" d="M466.62,495.48c2.4-2.47,4.78-5,7.08-7.61l-1.29-1.16c-2.29,2.57-4.65,5.11-7,7.56Z"/>
            <path class="cls-2" d="M480.44,480c2.18-2.68,4.32-5.44,6.38-8.21l-1.39-1c-2,2.75-4.17,5.49-6.34,8.15Z"/>
            <path class="cls-2" d="M521.85,264.59l1.66-.49c-1-3.33-2.06-6.66-3.19-9.91l-1.63.57C519.8,258,520.87,261.29,521.85,264.59Z"/>
            <path class="cls-2" d="M526.54,387.56c.83-3.36,1.59-6.78,2.27-10.18l-1.7-.34c-.67,3.37-1.43,6.77-2.26,10.1Z"/>
            <path class="cls-2" d="M506.65,226.22l1.55-.77c-1.55-3.09-3.2-6.18-4.88-9.19l-1.51.84C503.48,220.09,505.11,223.16,506.65,226.22Z"/>
            <path class="cls-2" d="M515.1,245.07l1.6-.63c-1.26-3.21-2.62-6.44-4-9.59l-1.58.71C512.49,238.69,513.84,241.89,515.1,245.07Z"/>
            <path class="cls-2" d="M528.57,284.28c-.69-3.37-1.46-6.78-2.31-10.14l-1.68.42c.84,3.34,1.61,6.73,2.3,10.07Z"/>
            <path class="cls-2" d="M532.89,346.39c.23-3.45.37-6.95.44-10.4l-1.73,0c-.07,3.43-.21,6.9-.43,10.32Z"/>
            <path class="cls-2" d="M533.3,325.58c-.09-3.45-.25-6.95-.49-10.39l-1.73.12c.24,3.42.4,6.89.49,10.32Z"/>
            <path class="cls-2" d="M531.85,304.82c-.39-3.43-.87-6.9-1.41-10.31l-1.71.28c.54,3.38,1,6.82,1.4,10.23Z"/>
          </g>
        </g>
        <g>
          <path class="cls-3" d="M148.13,415.45v19A16.58,16.58,0,0,0,164.66,451H436.05a16.58,16.58,0,0,0,16.53-16.53v-19Z"/>
          <path class="cls-4" d="M436.05,213.5H164.66A16.57,16.57,0,0,0,148.13,230v200.3H452.58V230A16.57,16.57,0,0,0,436.05,213.5Z"/>
          <polygon class="cls-5" points="159.5 225.9 159.5 403.88 159.5 405.02 159.5 418.05 441.21 418.05 441.21 407.02 441.21 403.88 441.21 225.9 159.5 225.9"/>
          <rect class="cls-3" x="275.78" y="442.51" width="49.14" height="28.18"/>
          <rect class="cls-3" x="246.16" y="465.91" width="108.39" height="8.56"/>
        </g>
        <g>
          <rect class="cls-6" x="199.38" y="398.43" width="6.92" height="35.76"/>
          <rect class="cls-4" x="157.81" y="463.4" width="8.8" height="10.65" rx="3.02"/>
          <rect class="cls-4" x="184.97" y="397.59" width="17.86" height="37.46"/>
          <polygon class="cls-4" points="212.22 438.94 206.09 433.57 206.09 399.06 212.22 393.69 212.22 438.94"/>
          <polygon class="cls-4" points="44.03 387.26 48.92 391.53 48.92 419.01 44.03 423.29 44.03 387.26"/>
          <rect class="cls-6" x="48.39" y="391.44" width="19.59" height="28.24"/>
          <path class="cls-4" d="M134.12,455a21.63,21.63,0,0,0,1,2.86s7.93,9.82,11,19.47c6.83,14.47.82,40,.82,40s-.21,7.69,8.21,7.18c7,.51,7.62-7.18,7.62-7.18V455Z"/>
          <path class="cls-3" d="M186.12,374.15H70.87a15.56,15.56,0,0,0-15.56,15.57v54.17c0,8.59,7,6.33,15.56,6.33H186.12Z"/>
          <path class="cls-7" d="M55.31,442.4v3.79a15.56,15.56,0,0,0,15.56,15.56H186.12V442.4Z"/>
          <path class="cls-5" d="M183.19,402.05h-47.4a9.65,9.65,0,0,0-9.65,9.66v9.21a9.65,9.65,0,0,0,9.65,9.66h47.4Z"/>
          <rect class="cls-4" x="212.22" y="393.69" width="2.87" height="45.25"/>
          <path class="cls-8" d="M177,452.07a4.64,4.64,0,1,1-4.64-4.64A4.64,4.64,0,0,1,177,452.07Z"/>
          <path class="cls-5" d="M163.4,452.07a4.64,4.64,0,1,1-4.64-4.64A4.64,4.64,0,0,1,163.4,452.07Z"/>
          <rect class="cls-4" x="70.1" y="402.05" width="1.68" height="28.48"/>
          <rect class="cls-4" x="76.59" y="402.05" width="1.68" height="28.48"/>
          <rect class="cls-4" x="83.09" y="402.05" width="1.68" height="28.48"/>
        </g>
        <rect class="cls-4" x="183.94" y="195.11" width="232.83" height="151.65"/>
        <rect class="cls-9" x="183.94" y="217.59" width="232.83" height="106.7"/>
        <g>
          <path class="cls-5" d="M300.54,301.42A30.48,30.48,0,1,1,331,271,30.51,30.51,0,0,1,300.54,301.42Zm0-59.14A28.67,28.67,0,1,0,329.22,271,28.7,28.7,0,0,0,300.54,242.28Z"/>
          <polygon class="cls-5" points="321.57 270.94 305.51 280.22 289.44 289.5 289.44 270.94 289.44 252.39 305.51 261.66 321.57 270.94"/>
        </g>
        <g>
          <g>
            <rect class="cls-5" x="193.22" y="200.77" width="11.14" height="11.14"/>
            <rect class="cls-5" x="215.82" y="200.77" width="11.14" height="11.14"/>
            <rect class="cls-5" x="238.43" y="200.77" width="11.14" height="11.14"/>
            <rect class="cls-5" x="261.03" y="200.77" width="11.14" height="11.14"/>
            <rect class="cls-5" x="283.64" y="200.77" width="11.14" height="11.14"/>
            <rect class="cls-5" x="306.24" y="200.77" width="11.14" height="11.14"/>
            <rect class="cls-5" x="328.85" y="200.77" width="11.14" height="11.14"/>
            <rect class="cls-5" x="351.46" y="200.77" width="11.14" height="11.14"/>
            <rect class="cls-5" x="374.06" y="200.77" width="11.14" height="11.14"/>
            <rect class="cls-5" x="396.66" y="200.77" width="11.14" height="11.14"/>
          </g>
          <g>
            <rect class="cls-5" x="193.22" y="329.25" width="11.14" height="11.14"/>
            <rect class="cls-5" x="215.82" y="329.25" width="11.14" height="11.14"/>
            <rect class="cls-5" x="238.43" y="329.25" width="11.14" height="11.14"/>
            <rect class="cls-5" x="261.03" y="329.25" width="11.14" height="11.14"/>
            <rect class="cls-5" x="283.64" y="329.25" width="11.14" height="11.14"/>
            <rect class="cls-5" x="306.24" y="329.25" width="11.14" height="11.14"/>
            <rect class="cls-5" x="328.85" y="329.25" width="11.14" height="11.14"/>
            <rect class="cls-5" x="351.46" y="329.25" width="11.14" height="11.14"/>
            <rect class="cls-5" x="374.06" y="329.25" width="11.14" height="11.14"/>
            <rect class="cls-5" x="396.66" y="329.25" width="11.14" height="11.14"/>
          </g>
        </g>
        <g>
          <path class="cls-10" d="M109.88,112.83H200a4.17,4.17,0,0,1,4.16,4.17v43.65a4.17,4.17,0,0,1-4.16,4.17h-5.05V176l-12.17-11.19H109.88a4.17,4.17,0,0,1-4.17-4.17V117A4.17,4.17,0,0,1,109.88,112.83Z"/>
          <g>
            <rect class="cls-5" x="120.35" y="128.19" width="69.14" height="3.88"/>
            <rect class="cls-5" x="120.35" y="137" width="69.14" height="3.89"/>
            <rect class="cls-5" x="120.35" y="145.76" width="37.63" height="3.88"/>
          </g>
        </g>
        <g>
          <path class="cls-8" d="M87.84,140.87c26,0,47.16,15.43,47.16,34.46a27.33,27.33,0,0,1-5.48,16.13l6.42,20L114.07,204a59.79,59.79,0,0,1-26.23,5.83c-26.05,0-47.16-15.43-47.16-34.47S61.79,140.87,87.84,140.87Z"/>
          <g>
            <path class="cls-5" d="M77.91,188c.29,1.91-2.14,3.86-5.42,4.35s-6.16-.66-6.45-2.57,2.14-3.85,5.42-4.34S77.62,186.1,77.91,188Z"/>
            <path class="cls-5" d="M101,183.6c.29,1.91-2.14,3.85-5.42,4.35s-6.16-.66-6.45-2.57,2.14-3.85,5.42-4.34S100.66,181.69,101,183.6Z"/>
            <rect class="cls-5" x="76.2" y="163.7" width="1.73" height="24.74"/>
            <polygon class="cls-5" points="76.2 169.14 76.2 161.32 101.04 158.2 101.04 166.02 76.2 169.14"/>
            <rect class="cls-5" x="99.31" y="159.64" width="1.73" height="24.19"/>
          </g>
        </g>
        <g>
          <path class="cls-5" d="M475.43,115.34A17.33,17.33,0,1,1,458.11,98,17.32,17.32,0,0,1,475.43,115.34Z"/>
          <g>
            <path class="cls-4" d="M479.08,110.9a21.49,21.49,0,0,0-3.6-8.13l2.55-2.68-5.66-5.4-2.56,2.68a21.34,21.34,0,0,0-8.31-3.2l-.09-3.71-7.82.19.09,3.71a21.77,21.77,0,0,0-2.31.62,21.1,21.1,0,0,0-5.82,3l-2.69-2.56-5.4,5.67,2.69,2.55a21.51,21.51,0,0,0-3.21,8.31l-3.71.09.2,7.82,3.71-.09a21.24,21.24,0,0,0,3.6,8.14l-2.55,2.68,5.66,5.4,2.56-2.68a21.45,21.45,0,0,0,8.3,3.2l.1,3.71,7.82-.19-.09-3.71c.78-.17,1.55-.38,2.31-.62a21.44,21.44,0,0,0,5.83-3l2.68,2.56,5.39-5.67L476.07,127a21.41,21.41,0,0,0,3.21-8.3l3.7-.09-.19-7.83Zm-7.45,4.1a13.52,13.52,0,0,1-9.27,13.17,13.38,13.38,0,0,1-3.92.68A13.52,13.52,0,1,1,471.63,115Z"/>
            <polygon class="cls-9" points="453.46 123.38 448.82 115.34 453.46 107.29 462.75 107.29 467.4 115.34 462.75 123.38 453.46 123.38"/>
          </g>
        </g>
        <g>
          <rect class="cls-8" x="482.05" y="406.12" width="90.55" height="59.72"/>
          <path class="cls-11" d="M542.36,435.57c.39.23.39.59,0,.81L530,443.53l-1.4.81-12.39,7.15c-.39.23-.7,0-.7-.4V420.87c0-.44.31-.63.7-.4l12.39,7.15,1.4.8Z"/>
        </g>
        <g>
          <path class="cls-5" d="M599.87,278.45H485.21V204.82H599.87Z"/>
          <g>
            <rect class="cls-10" x="489.41" y="209.25" width="106.27" height="56.26"/>
            <rect class="cls-4" x="489.41" y="270.29" width="83.68" height="4.9"/>
            <g>
              <path class="cls-5" d="M542.64,254.55a16.07,16.07,0,1,1,16.08-16.07A16.09,16.09,0,0,1,542.64,254.55Zm0-31.18a15.12,15.12,0,1,0,15.12,15.11A15.12,15.12,0,0,0,542.64,223.37Z"/>
              <polygon class="cls-5" points="553.73 238.48 545.26 243.37 536.79 248.27 536.79 238.48 536.79 228.7 545.26 233.59 553.73 238.48"/>
            </g>
            <path class="cls-5" d="M513.93,272.73a2.45,2.45,0,0,1-2.45,2.45h-8.35a2.45,2.45,0,0,1-2.45-2.45h0a2.45,2.45,0,0,1,2.45-2.44h8.35a2.45,2.45,0,0,1,2.45,2.44Z"/>
            <g>
              <rect class="cls-4" x="578.26" y="270.9" width="1.14" height="3.68"/>
              <polygon class="cls-4" points="582.26 276.54 579.7 274.58 579.7 270.89 582.26 268.94 582.26 276.54"/>
            </g>
            <rect class="cls-4" x="586.12" y="268.94" width="8.69" height="7.48"/>
          </g>
        </g>
        <g>
          <path class="cls-10" d="M399.4,355.31H292.75c.88,11.17,11.39,20,24.26,20H399.4Z"/>
          <path class="cls-12" d="M386.69,355.31H304.44c0,7,9.42,11.68,18.85,11.68h63.4Z"/>
          <path class="cls-10" d="M399.38,375.34V291.65c0-12.44-8.83-22.6-20-23.45V375.34Z"/>
          <path class="cls-4" d="M388.61,367.34a3.39,3.39,0,1,0-3.4-3.39A3.39,3.39,0,0,0,388.61,367.34Z"/>
          <path class="cls-4" d="M379.41,375.3v13.24a14,14,0,1,0,20,13.48l0-26.72Zm6.06,35.51a9.65,9.65,0,1,1,9.89-9.65A9.78,9.78,0,0,1,385.47,410.81Z"/>
          <path class="cls-4" d="M399.39,375.31l26.72,0a14,14,0,1,0-13.48-20H399.39Zm25.86-4.05a9.9,9.9,0,1,1,9.65-9.89A9.76,9.76,0,0,1,425.25,371.26Z"/>
        </g>
        <path class="cls-2" d="M296.89,74.27a27.79,27.79,0,1,1,52.49-18.19,18.15,18.15,0,0,1,31.4,17.84h10.14a12.4,12.4,0,1,1,0,24.8H299.84a12.4,12.4,0,0,1-2.95-24.45Z"/>
      </g>
    </g>
  </g>
</svg>
