<svg xmlns="http://www.w3.org/2000/svg" width="105.585" height="89.342" viewBox="0 0 105.585 89.342">
  <g id="quote-left" transform="translate(0 -36.545)">
    <g id="Grupo_31548" data-name="Grupo 31548" transform="translate(0 36.545)">
      <path id="Trazado_28878" data-name="Trazado 28878" d="M36.549,77.155H22.335a6.066,6.066,0,0,1-6.092-6.092v-2.03A15.65,15.65,0,0,1,21,57.548,15.654,15.654,0,0,1,32.488,52.79h4.061a4.117,4.117,0,0,0,4.061-4.061V40.606a4.117,4.117,0,0,0-4.061-4.061H32.488a31.659,31.659,0,0,0-12.6,2.57A32.18,32.18,0,0,0,2.57,56.438,31.645,31.645,0,0,0,0,69.033V113.7a11.749,11.749,0,0,0,3.553,8.631,11.752,11.752,0,0,0,8.63,3.553H36.55A12.131,12.131,0,0,0,48.733,113.7V89.338A12.134,12.134,0,0,0,36.549,77.155Z" transform="translate(0 -36.545)" fill="#10c4bf"/>
      <path id="Trazado_28879" data-name="Trazado 28879" d="M301,80.708a11.749,11.749,0,0,0-8.629-3.553H278.156a6.066,6.066,0,0,1-6.09-6.092v-2.03A16.246,16.246,0,0,1,288.31,52.79h4.06a4.119,4.119,0,0,0,4.062-4.061V40.606a4.119,4.119,0,0,0-4.062-4.061h-4.06a31.667,31.667,0,0,0-12.6,2.57,32.189,32.189,0,0,0-17.321,17.323,31.653,31.653,0,0,0-2.571,12.6V113.7A12.131,12.131,0,0,0,268,125.886h24.366A12.13,12.13,0,0,0,304.55,113.7V89.338A11.749,11.749,0,0,0,301,80.708Z" transform="translate(-198.965 -36.545)" fill="#10c4bf"/>
    </g>
  </g>
</svg>
