<svg id="Layer_1" data-name="Layer 1" xmlns="http://www.w3.org/2000/svg" width="800" height="800" viewBox="0 0 800 800">
  <defs>
    <style>
      .cls-1 {
        fill: #ffce67;
      }

      .cls-2 {
        fill: #e0915f;
      }

      .cls-3 {
        fill: #2c2e36;
      }

      .cls-4 {
        fill: #fbe1ba;
      }

      .cls-5 {
        fill: #231f20;
      }

      .cls-6 {
        fill: #525760;
      }

      .cls-7 {
        fill: #424242;
      }

      .cls-8 {
        fill: #dec5a5;
      }

      .cls-9 {
        fill: #fffce8;
      }

      .cls-10 {
        fill: #ededee;
      }

      .cls-11 {
        fill: #ccae8b;
      }
    </style>
  </defs>
  <g>
    <path class="cls-1" d="M780,400c0,209.85-170.11,380-380,380S20,609.85,20,400,190.15,20,400,20,780,190.16,780,400Z"/>
    <path class="cls-2" d="M655.8,284.11H262.85l-.49-.81-13.6-15.66,24.74-4.35L338,252l60.74-10.69,64.47-11.35,60.75-10.68,64.48-11.33,60.29-10.61-.07-.49-9.51-54h0l-1-5.52h0l-.56-3.24L581.07,144l-60.74,10.69L455.85,166l-60.73,10.69L330.65,188l-60.74,10.68-64.48,11.35-14.12,2.49a26.81,26.81,0,0,0-7-.49l-15.19,1a23.67,23.67,0,0,0-13.71,5.77l-10.74,1.89-.48.08,2.21,12.56a28.91,28.91,0,0,0-.94,7.24v84.9a27.56,27.56,0,0,0,9.39,21v1.82h2.42a22.8,22.8,0,0,0,9.94,3.69V653.67a15.56,15.56,0,0,0,15.57,15.57H625.18a15.57,15.57,0,0,0,15.56-15.57V351.39a16.09,16.09,0,0,0-.3-3.05H655.8Z"/>
    <g>
      <g>
        <path class="cls-3" d="M145.35,324.73a15.57,15.57,0,0,1,15.57-15.58H603.31a15.57,15.57,0,0,1,15.56,15.58V627a15.57,15.57,0,0,1-15.56,15.58H160.92A15.57,15.57,0,0,1,145.35,627Z"/>
        <rect class="cls-4" x="200.18" y="577.7" width="353.63" height="4.95"/>
        <rect class="cls-4" x="458.07" y="582.65" width="4.96" height="39.57"/>
        <rect class="cls-4" x="290.97" y="582.65" width="4.95" height="39.57"/>
        <path class="cls-5" d="M378.19,365.64a90.13,90.13,0,1,0,90.13,90.13A90.15,90.15,0,0,0,378.19,365.64Zm0,168.11a78,78,0,1,1,78-78A78,78,0,0,1,378.19,533.75Z"/>
        <path class="cls-4" d="M289.7,455.77a88.49,88.49,0,1,0,88.49-88.5A88.59,88.59,0,0,0,289.7,455.77Zm8.89,0a79.6,79.6,0,1,1,79.6,79.6A79.69,79.69,0,0,1,298.59,455.77Z"/>
        <path class="cls-6" d="M603.31,321H160.92a3.73,3.73,0,0,0-3.73,3.73V627a3.73,3.73,0,0,0,2.3,3.44c21.35-69.87,65.78-131.13,125.43-176.86a93.15,93.15,0,0,1,149.81-72,440.18,440.18,0,0,1,108.09-13.43A446.45,446.45,0,0,1,607,372.83v-48.1A3.74,3.74,0,0,0,603.31,321Z"/>
        <path class="cls-7" d="M341.23,411.16c0-3.89,1.55-7,4.25-8.57s6.18-1.35,9.56.6l7,4a420,420,0,0,1,48.41-18.75,74.45,74.45,0,0,0-105,50.39,403.06,403.06,0,0,1,35.75-21.41Z"/>
        <path class="cls-5" d="M430.66,460.91c4.9-2.83,4.9-7.47,0-10.29l-29.72-17.16c-4.89-2.83-12.92-7.45-17.82-10.29L353.4,406c-4.89-2.83-8.91-.52-8.91,5.15v89.21c0,5.66,4,8,8.91,5.13l29.72-17.14c4.9-2.83,12.93-7.47,17.82-10.31Z"/>
        <path class="cls-4" d="M347.92,406.82c-1.14.66-1.8,2.25-1.79,4.35v89.21c0,2.09.65,3.67,1.79,4.33s2.86.44,4.67-.62L382.31,487l47.53-27.46c1.82-1.05,2.86-2.41,2.86-3.74s-1-2.67-2.86-3.73l-77.25-44.6C350.78,406.38,349.07,406.16,347.92,406.82Z"/>
        <path class="cls-8" d="M290.07,448.28c3.27-2.39,6.56-4.75,9.91-7a79.5,79.5,0,0,1,116.56-55.18c3.83-1.14,7.68-2.25,11.58-3.28a88.37,88.37,0,0,0-138,65.51Z"/>
        <path class="cls-8" d="M347.92,406.82c-1.14.66-1.8,2.25-1.79,4.35V414q4.77-2.41,9.61-4.72l-3.15-1.81C350.78,406.38,349.07,406.16,347.92,406.82Z"/>
        <polygon class="cls-4" points="559.21 117.32 626.76 170.14 626.84 170.63 566.54 181.24 498.46 128.01 559.21 117.32"/>
        <polygon class="cls-4" points="308.79 161.37 376.84 214.6 316.11 225.29 248.04 172.05 308.79 161.37"/>
        <polygon class="cls-4" points="183.56 183.4 251.63 236.63 190.9 247.31 122.81 194.08 183.56 183.4"/>
        <polygon class="cls-4" points="433.98 139.34 502.06 192.57 441.31 203.25 373.25 150.03 433.98 139.34"/>
        <polygon class="cls-3" points="615.71 107.38 626.76 170.14 559.21 117.32 615.71 107.38"/>
        <polygon class="cls-3" points="498.46 128.01 566.54 181.24 502.06 192.57 433.98 139.34 498.46 128.01"/>
        <polygon class="cls-3" points="373.25 150.03 441.31 203.25 376.84 214.6 308.79 161.37 373.25 150.03"/>
        <polygon class="cls-3" points="248.04 172.05 316.11 225.29 251.63 236.63 183.56 183.4 248.04 172.05"/>
        <polygon class="cls-3" points="122.33 194.17 122.81 194.08 190.9 247.31 133.47 257.42 122.33 194.17"/>
        <g>
          <polygon class="cls-9" points="562.79 120.02 568.73 124.67 507.99 135.36 502.04 130.71 562.79 120.02"/>
          <polygon class="cls-9" points="437.56 142.05 443.53 146.7 382.78 157.38 376.83 152.73 437.56 142.05"/>
          <polygon class="cls-9" points="312.37 164.07 318.31 168.72 257.56 179.41 251.63 174.76 312.37 164.07"/>
          <polygon class="cls-10" points="187.16 186.1 193.09 190.75 132.34 201.43 126.4 196.78 187.16 186.1"/>
        </g>
        <g>
          <polygon class="cls-6" points="616.28 110.62 617.26 116.14 568.73 124.67 562.79 120.02 616.28 110.62"/>
          <polygon class="cls-6" points="502.04 130.71 507.99 135.36 443.53 146.7 437.56 142.05 502.04 130.71"/>
          <polygon class="cls-6" points="376.83 152.73 382.78 157.38 318.31 168.72 312.37 164.07 376.83 152.73"/>
          <polygon class="cls-6" points="251.63 174.76 257.56 179.41 193.09 190.75 187.16 186.1 251.63 174.76"/>
          <polygon class="cls-6" points="132.34 201.43 123.89 202.92 122.92 197.4 126.4 196.78 132.34 201.43"/>
        </g>
        <polygon class="cls-4" points="190.36 257.45 132.99 321.18 132.99 321.68 194.22 321.68 252.02 257.45 190.36 257.45"/>
        <polygon class="cls-4" points="444.64 257.45 386.81 321.68 448.48 321.68 506.32 257.45 444.64 257.45"/>
        <polygon class="cls-4" points="571.76 257.45 513.96 321.68 575.63 321.68 633.44 257.45 571.76 257.45"/>
        <polygon class="cls-4" points="317.5 257.45 259.67 321.68 321.35 321.68 379.17 257.45 317.5 257.45"/>
        <polygon class="cls-3" points="252.02 257.45 194.22 321.68 259.67 321.68 317.5 257.45 252.02 257.45"/>
        <polygon class="cls-3" points="379.17 257.45 321.35 321.68 386.81 321.68 444.64 257.45 379.17 257.45"/>
        <polygon class="cls-3" points="506.32 257.45 448.48 321.68 513.96 321.68 571.76 257.45 506.32 257.45"/>
        <polygon class="cls-3" points="633.93 257.45 633.44 257.45 575.63 321.68 633.93 321.68 633.93 257.45"/>
        <g>
          <polygon class="cls-10" points="187.3 260.74 182.25 266.35 243.91 266.35 248.97 260.74 187.3 260.74"/>
          <polygon class="cls-9" points="314.44 260.74 309.39 266.35 371.06 266.35 376.11 260.74 314.44 260.74"/>
          <polygon class="cls-9" points="441.58 260.74 436.53 266.35 498.2 266.35 503.26 260.74 441.58 260.74"/>
          <polygon class="cls-9" points="568.71 260.74 563.65 266.35 625.33 266.35 630.38 260.74 568.71 260.74"/>
        </g>
        <g>
          <polygon class="cls-6" points="248.97 260.74 243.91 266.35 309.39 266.35 314.44 260.74 248.97 260.74"/>
          <polygon class="cls-6" points="376.11 260.74 371.06 266.35 436.53 266.35 441.58 260.74 376.11 260.74"/>
          <polygon class="cls-6" points="503.26 260.74 498.2 266.35 563.65 266.35 568.71 260.74 503.26 260.74"/>
          <polygon class="cls-6" points="625.33 266.35 633.93 266.35 633.93 260.74 630.38 260.74 625.33 266.35"/>
        </g>
        <g>
          <path class="cls-6" d="M162.19,185.4l-15.18,1c-13,.89-23.66,13.25-23.66,27.54v84.9c0,14.7,10.92,26.67,24.39,26.67h77.68c13.46,0,24.41-12,24.41-26.67v-8c0-10.33-3.89-24.66-9-33.33l-.56-.94-48.8-56.2,1.26,1.75C186.55,191.84,173.45,184.62,162.19,185.4Z"/>
          <path class="cls-3" d="M147.71,198.53c-7.29.49-13.29,7.45-13.29,15.44v84.9c0,8,6,14.55,13.32,14.55h77.68c7.33,0,13.31-6.54,13.31-14.55v-8c0-8-3.26-20-7.24-26.74L183.4,208.78c-4-6.72-13.21-11.79-20.52-11.3Z"/>
          <path class="cls-11" d="M167.94,220.43c0,5.32-4,9.65-8.85,9.65s-8.83-4.33-8.83-9.65,4-9.67,8.83-9.67S167.94,215.09,167.94,220.43Z"/>
          <path class="cls-11" d="M167.94,293.09c0,5.34-4,9.66-8.85,9.66s-8.83-4.32-8.83-9.66,4-9.65,8.83-9.65S167.94,287.75,167.94,293.09Z"/>
          <path class="cls-11" d="M226.61,293.09c0,5.34-4,9.66-8.83,9.66s-8.85-4.32-8.85-9.66,3.95-9.65,8.85-9.65S226.61,287.75,226.61,293.09Z"/>
        </g>
        <rect class="cls-4" x="200.18" y="335.61" width="347.58" height="3.14"/>
      </g>
      <path class="cls-4" d="M162.34,218.82c0,2.67-1.9,4.84-4.25,4.84a4.89,4.89,0,0,1,0-9.69C160.44,214,162.34,216.14,162.34,218.82Z"/>
      <path class="cls-4" d="M161.47,291.41a3.56,3.56,0,1,1-3.53-4A3.81,3.81,0,0,1,161.47,291.41Z"/>
      <path class="cls-4" d="M220.57,291.27a4,4,0,1,1-4-4A4,4,0,0,1,220.57,291.27Z"/>
    </g>
  </g>
</svg>
